<?xml version="1.0" encoding="utf-8"?>
<!-- Generator: Adobe Illustrator 21.0.0, SVG Export Plug-In . SVG Version: 6.00 Build 0)  -->
<svg version="1.1" id="Laag_1" xmlns="http://www.w3.org/2000/svg" xmlns:xlink="http://www.w3.org/1999/xlink" x="0px" y="0px"
	 viewBox="0 0 117 113.2" style="enable-background:new 0 0 117 113.2;" xml:space="preserve">
<style type="text/css">
	.st0{fill:#FFFFFF;stroke:#FFFFFF;stroke-width:4;stroke-miterlimit:10;}
	.st1{fill:#FFFFFF;}
</style>
<path class="st0" d="M68.3,4.8c-6.6-4.8-15.7-2.1-16-1.9c-0.9,0.3-1.5,1.1-1.5,2v20c0,6.8-3.2,12.5-9.6,17.1c-4.9,3.5-10,5-10,5
	c0,0-0.1,0-0.1,0l-1.2,0.4c-0.7-1.1-1.9-1.9-3.4-1.9H5.9c-2.2,0-3.9,1.8-3.9,3.9v56.1c0,2.2,1.8,3.9,3.9,3.9h20.6
	c1.9,0,3.4-1.3,3.8-3c2.8,3,6.7,4.8,11.1,4.8h48.9c10.4,0,17-5.4,18.2-14.9l6.2-39.7c0.9-5.8-1.4-11.6-6-14.8
	c-2.6-1.9-5.6-2.8-8.8-2.8H74.6V20.4C74.6,13.1,72.5,7.9,68.3,4.8L68.3,4.8z M26.3,105.2H6.2V49.7h20.1V105.2z M100,43.1
	c2.3,0,4.5,0.7,6.4,2.1c3.3,2.4,5,6.6,4.3,10.8l-6.2,39.7v0.1c-1.1,9.3-8.3,11.2-14,11.2H41.5c-6.1,0-11-4.9-11-11V51.7l1.9-0.7
	c0.7-0.2,5.9-1.8,11.1-5.5C51.1,40.2,55,33.1,55,24.9V6.6c2.4-0.5,7.3-0.9,10.8,1.7c3,2.2,4.5,6.3,4.5,12.1V41c0,1.2,1,2.1,2.1,2.1
	L100,43.1L100,43.1z M100,43.1"/>
</svg>
