<?xml version="1.0" encoding="utf-8"?>
<!-- Generator: Adobe Illustrator 21.0.0, SVG Export Plug-In . SVG Version: 6.00 Build 0)  -->
<svg version="1.1" id="Laag_1" xmlns="http://www.w3.org/2000/svg" xmlns:xlink="http://www.w3.org/1999/xlink" x="0px" y="0px"
	 viewBox="0 0 113 113" style="enable-background:new 0 0 113 113;" xml:space="preserve">
<style type="text/css">
	.st0{fill:#FFFFFF;stroke:#FFFFFF;stroke-width:4;stroke-miterlimit:10;}
	.st1{fill:#FFFFFF;}
</style>
<g>
	<path class="st1" d="M81.8,0H31.2C14,0,0,14,0,31.2v50.6C0,99,14,113,31.2,113h50.7C99,113,113,99,113,81.8V31.2
		C113,14,99,0,81.8,0L81.8,0z M103,81.8c0,11.7-9.5,21.2-21.2,21.2H31.2C19.5,103,10,93.5,10,81.8V31.2C10,19.5,19.5,10,31.2,10
		h50.7c11.7,0,21.2,9.5,21.2,21.2V81.8z M103,81.8"/>
	<path class="st1" d="M56.5,27.4c-16.1,0-29.1,13.1-29.1,29.1c0,16.1,13.1,29.1,29.1,29.1c16.1,0,29.1-13.1,29.1-29.1
		C85.6,40.5,72.6,27.4,56.5,27.4L56.5,27.4z M56.5,75.6c-10.5,0-19.1-8.6-19.1-19.1c0-10.5,8.6-19.1,19.1-19.1S75.6,46,75.6,56.5
		C75.6,67.1,67,75.6,56.5,75.6L56.5,75.6z M56.5,75.6"/>
	<path class="st1" d="M86.9,18.9c-1.9,0-3.8,0.8-5.2,2.2c-1.4,1.4-2.2,3.3-2.2,5.2c0,1.9,0.8,3.8,2.2,5.2c1.4,1.4,3.3,2.2,5.2,2.2
		c1.9,0,3.8-0.8,5.2-2.2c1.4-1.4,2.2-3.3,2.2-5.2c0-1.9-0.8-3.8-2.2-5.2C90.7,19.7,88.8,18.9,86.9,18.9L86.9,18.9z M86.9,18.9"/>
</g>
</svg>
