<?xml version="1.0" encoding="utf-8"?>
<!-- Generator: Adobe Illustrator 21.0.0, SVG Export Plug-In . SVG Version: 6.00 Build 0)  -->
<svg version="1.1" id="Laag_1" xmlns="http://www.w3.org/2000/svg" xmlns:xlink="http://www.w3.org/1999/xlink" x="0px" y="0px"
	 viewBox="0 0 113 113" style="enable-background:new 0 0 113 113;" xml:space="preserve">
<style type="text/css">
	.st0{fill:#FFFFFF;stroke:#FFFFFF;stroke-miterlimit:10;}
</style>
<g>
	<path class="st0" d="M61.7,54.2c0,2.9-2.3,5.2-5.2,5.2c-2.9,0-5.2-2.3-5.2-5.2c0-2.9,2.3-5.2,5.2-5.2C59.4,49,61.7,51.3,61.7,54.2
		L61.7,54.2z M61.7,54.2"/>
	<path class="st0" d="M76.6,54.2c0,2.9-2.3,5.2-5.2,5.2c-2.9,0-5.2-2.3-5.2-5.2c0-2.9,2.3-5.2,5.2-5.2C74.3,49,76.6,51.3,76.6,54.2
		L76.6,54.2z M76.6,54.2"/>
	<path class="st0" d="M46.8,54.2c0,2.9-2.3,5.2-5.2,5.2c-2.9,0-5.2-2.3-5.2-5.2c0-2.9,2.3-5.2,5.2-5.2C44.4,49,46.8,51.3,46.8,54.2
		L46.8,54.2z M46.8,54.2"/>
	<path class="st0" d="M82.4,0H30.4c-4.9,0-8.8,3.9-8.8,8.7v95.2c0,4.9,3.9,8.7,8.8,8.7h51.9c4.9,0,8.8-3.9,8.8-8.7V8.7
		C91.2,3.9,87.2,0,82.4,0L82.4,0z M56.4,107.7c-3.1,0-5.5-2.5-5.5-5.5c0-3.1,2.5-5.6,5.5-5.6c3.1,0,5.6,2.5,5.6,5.6
		C61.9,105.2,59.4,107.7,56.4,107.7L56.4,107.7z M81.2,91c0,1-0.7,1.9-1.7,1.9H33.3c-1,0-1.9-0.9-1.9-1.9V11.1c0-1,0.9-1.8,1.9-1.8
		h46.2c1,0,1.7,0.8,1.7,1.8V91z M81.2,91"/>
</g>
</svg>
