<?xml version="1.0" encoding="utf-8"?>
<!-- Generator: Adobe Illustrator 21.0.0, SVG Export Plug-In . SVG Version: 6.00 Build 0)  -->
<svg version="1.1" id="Laag_1" xmlns="http://www.w3.org/2000/svg" xmlns:xlink="http://www.w3.org/1999/xlink" x="0px" y="0px"
	 viewBox="0 0 114 76.6" style="enable-background:new 0 0 114 76.6;" xml:space="preserve">
<style type="text/css">
	.st0{fill:#FFFFFF;stroke:#FFFFFF;stroke-miterlimit:10;}
</style>
<g>
	<path class="st0" d="M112.7,0.8c-0.5-0.3-1.2-0.4-1.8-0.1l-9.6,4.6H46.2c-0.1-0.9-0.9-1.6-1.8-1.6h-27c-4.2,0-7.6,3.4-7.6,7.6
		c0,4.2,3.4,7.6,7.6,7.6h27c0.9,0,1.7-0.7,1.8-1.6h5.1v8.7H38.5c-2.7,0-5,1.8-5.8,4.3H21.2L3,23.1c-0.6-0.2-1.2-0.1-1.7,0.2
		c-0.5,0.3-0.8,0.9-0.8,1.5v49.4c0,0.6,0.3,1.2,0.8,1.5c0.3,0.2,0.7,0.3,1,0.3c0.2,0,0.4,0,0.7-0.1l18.2-7h11.4
		c0.8,2.5,3.1,4.3,5.8,4.3h59c3.4,0,6.1-2.7,6.1-6.1V32c0-3.4-2.7-6.1-6.1-6.1H84.6v-8.7h16.7l9.6,4.6c0.2,0.1,0.5,0.2,0.8,0.2
		c0.3,0,0.7-0.1,1-0.3c0.5-0.3,0.8-0.9,0.8-1.5V2.3C113.5,1.7,113.2,1.1,112.7,0.8L112.7,0.8z M99.9,13.6H46.2V8.9h53.6V13.6z
		 M13.4,11.2c0-2.2,1.8-4,4-4h25.2v7.9H17.4C15.2,15.2,13.4,13.4,13.4,11.2L13.4,11.2z M20.9,42.3c-1,0-1.8,0.8-1.8,1.8v21.7
		L4.1,71.6V27.5L19,33.2v3.6c0,1,0.8,1.8,1.8,1.8c1,0,1.8-0.8,1.8-1.8v-3h9.7v31.5h-9.7V44.1C22.7,43.1,21.9,42.3,20.9,42.3
		L20.9,42.3z M99.9,32v3.6H60.1c-5.7,0-10.3,4.6-10.3,10.3c0,1,0.8,1.8,1.8,1.8c1,0,1.8-0.8,1.8-1.8c0-3.7,3-6.7,6.7-6.7h39.8v20.7
		H60.1c-3.7,0-6.7-3-6.7-6.7c0-1-0.8-1.8-1.8-1.8c-1,0-1.8,0.8-1.8,1.8c0,5.7,4.6,10.3,10.3,10.3h39.8v3.6c0,1.4-1.1,2.5-2.5,2.5
		h-59c-1.4,0-2.5-1.1-2.5-2.5V32c0-1.4,1.1-2.5,2.5-2.5h59C98.8,29.5,99.9,30.6,99.9,32L99.9,32z M80.9,25.9H55v-8.7h26V25.9z
		 M109.9,17.3l-6.3-3v-6l6.3-3V17.3z M109.9,17.3"/>
</g>
</svg>
