<?xml version="1.0" encoding="utf-8"?>
<!-- Generator: Adobe Illustrator 21.0.0, SVG Export Plug-In . SVG Version: 6.00 Build 0)  -->
<svg version="1.1" id="Laag_1" xmlns="http://www.w3.org/2000/svg" xmlns:xlink="http://www.w3.org/1999/xlink" x="0px" y="0px"
	 viewBox="0 0 66.1 85.7" style="enable-background:new 0 0 66.1 85.7;" xml:space="preserve">
<style type="text/css">
	.st0{fill:#FFFFFF;stroke:#FFFFFF;stroke-miterlimit:10;}
</style>
<g>
	<path class="st0" d="M8.8,66.5c-0.7,0-1.3-0.6-1.3-1.3c0-0.7,0.6-1.3,1.3-1.3c0.7,0,1.3,0.6,1.3,1.3C10.1,66,9.5,66.5,8.8,66.5
		L8.8,66.5z M8.8,61.2c-2.3,0-4.1,1.8-4.1,4.1c0,2.3,1.8,4.1,4.1,4.1c2.3,0,4.1-1.8,4.1-4.1C12.9,63,11.1,61.2,8.8,61.2L8.8,61.2z"
		/>
	<path class="st0" d="M7,52c0.8,0,1.4,0.6,1.4,1.4c0,0.8-0.6,1.4-1.4,1.4c-0.8,0-1.4-0.6-1.4-1.4C5.6,52.6,6.2,52,7,52L7,52z"/>
	<path class="st0" d="M11.9,52c0.8,0,1.4,0.6,1.4,1.4c0,0.8-0.6,1.4-1.4,1.4c-0.8,0-1.4-0.6-1.4-1.4C10.4,52.6,11.1,52,11.9,52
		L11.9,52z"/>
	<path class="st0" d="M25.8,10.9c0.8,0,1.4,0.6,1.4,1.4c0,0.8-0.6,1.4-1.4,1.4s-1.4-0.6-1.4-1.4C24.4,11.6,25,10.9,25.8,10.9
		L25.8,10.9z"/>
	<path class="st0" d="M46.1,24.7c0.8,0,1.4,0.6,1.4,1.4s-0.6,1.4-1.4,1.4c-0.8,0-1.4-0.6-1.4-1.4S45.4,24.7,46.1,24.7L46.1,24.7z"/>
	<path class="st0" d="M16.6,52c0.8,0,1.4,0.6,1.4,1.4c0,0.8-0.6,1.4-1.4,1.4c-0.8,0-1.4-0.6-1.4-1.4C15.2,52.6,15.8,52,16.6,52
		L16.6,52z"/>
	<path class="st0" d="M16.3,82c-0.3,0.3-0.6,0.4-1,0.4c0,0,0,0,0,0c-0.4,0-0.7-0.1-1-0.4l-7.1-7.1l9.1,3.8c0.5,0.2,1.1,0.3,1.7,0.3
		c0.6,0,1.2-0.1,1.8-0.4L16.3,82L16.3,82z M4.7,3.3H19c0.8,0,1.4,0.6,1.4,1.4v11.5H3.3V4.7C3.3,4,4,3.3,4.7,3.3L4.7,3.3z M23.3,22.1
		L39,28.7l-2,4.8c0,0,0,0,0,0l-2.9,6.9l-10.9-4.6v-2.7V22.3L23.3,22.1L23.3,22.1z M40.2,34.2l12,12.1l-9,8.9l-8.7-8.7l1.6-3.7
		l3.4-7.9L40.2,34.2L40.2,34.2z M28.1,61.8l2-4.8l0,0l3.3-7.7l7.9,7.9l-9,8.9L28.1,61.8L28.1,61.8z M26.9,64.6l3.4,3.4l-8.5,8.5
		c0,0,0-0.1,0.1-0.1L26.9,64.6L26.9,64.6z M19,73.9c0.3,0,0.6,0,0.9-0.1l-0.6,1.5c-0.1,0.3-0.4,0.6-0.8,0.8c-0.4,0.1-0.7,0.1-1.1,0
		l-5.1-2.2L19,73.9L19,73.9L19,73.9z M31.6,46.3l-3.5,8.3l-4.8-2.1v-4v-9.7L33,43L31.6,46.3C31.6,46.3,31.6,46.3,31.6,46.3
		L31.6,46.3z M3.3,34.5h17.1v2.2c0,0,0,0,0,0.1v10.4H3.3V34.5L3.3,34.5z M3.3,69.6c0-4.8,0-19.6,0-19.6h17.1v3.5c0,0,0,0,0,0v16.2
		c0,0.8-0.6,1.4-1.4,1.4c0,0-10.2,0.1-14.1,0C4,71.1,3.3,70.4,3.3,69.6L3.3,69.6z M25.2,61.2c-0.2,0.2-0.3,0.4-0.3,0.7L23.2,66V55.6
		l3.7,1.6L25.2,61.2L25.2,61.2z M3.3,19h17.1v3c0,0,0,0,0,0v9.6H3.3V19L3.3,19z M64.3,32.2l-10-10.1c-0.8-0.8-1.9-1.2-3-1.2
		c0,0,0,0,0,0c-1.1,0-2.2,0.4-3,1.2c-0.6,0.6-0.6,1.4,0,2c0.6,0.6,1.4,0.6,2,0c0.3-0.3,0.6-0.4,1-0.4c0,0,0,0,0,0
		c0.4,0,0.7,0.1,1,0.4l10,10.1c0.6,0.6,0.5,1.5,0,2l-8.1,8.1l-13-13.1c0,0-0.1-0.1-0.1-0.1l1.1-2.6l0,0l5-11.8c0.4-1,0.5-2.2,0-3.3
		c-0.4-1.1-1.2-1.9-2.3-2.3L31.9,5.6c-1-0.4-2.2-0.5-3.3,0c-1.1,0.4-1.9,1.2-2.3,2.3c-0.3,0.7,0,1.6,0.8,1.9c0.7,0.3,1.6,0,1.9-0.8
		c0.1-0.3,0.4-0.6,0.8-0.8C30,8,30.4,8,30.8,8.2l13.1,5.6c0.3,0.1,0.6,0.4,0.8,0.8c0.1,0.4,0.1,0.7,0,1.1l-4.5,10.5l-16.9-7.2v-1.3
		V4.7c0-2.3-1.9-4.2-4.2-4.2H4.7c-2.3,0-4.2,1.9-4.2,4.2v12.9v15.5v15.5v21.1c0,0.9,0.3,1.7,0.7,2.3c0.2,0.7,0.6,1.4,1.1,1.9
		l10,10.1c0.8,0.8,1.9,1.2,3,1.2c0,0,0,0,0,0c1.1,0,2.2-0.4,3-1.2l15-14.9l0,0l9.7-9.7l8.6-8.6l3.6-3.5l0,0l9.1-9.1
		C66,36.5,66,33.8,64.3,32.2L64.3,32.2z"/>
	<path class="st0" d="M8.8,66.5c-0.7,0-1.3-0.6-1.3-1.3c0-0.7,0.6-1.3,1.3-1.3c0.7,0,1.3,0.6,1.3,1.3C10.1,66,9.5,66.5,8.8,66.5
		L8.8,66.5z M8.8,61.2c-2.3,0-4.1,1.8-4.1,4.1c0,2.3,1.8,4.1,4.1,4.1c2.3,0,4.1-1.8,4.1-4.1C12.9,63,11.1,61.2,8.8,61.2L8.8,61.2z"
		/>
	<path class="st0" d="M25.8,10.9c0.8,0,1.4,0.6,1.4,1.4c0,0.8-0.6,1.4-1.4,1.4s-1.4-0.6-1.4-1.4C24.4,11.6,25,10.9,25.8,10.9
		L25.8,10.9z"/>
	<path class="st0" d="M46.1,24.7c0.8,0,1.4,0.6,1.4,1.4s-0.6,1.4-1.4,1.4c-0.8,0-1.4-0.6-1.4-1.4S45.4,24.7,46.1,24.7L46.1,24.7z"/>
</g>
</svg>
