<?xml version="1.0" encoding="utf-8"?>
<!-- Generator: Adobe Illustrator 21.0.0, SVG Export Plug-In . SVG Version: 6.00 Build 0)  -->
<svg version="1.1" id="Laag_1" xmlns="http://www.w3.org/2000/svg" xmlns:xlink="http://www.w3.org/1999/xlink" x="0px" y="0px"
	 viewBox="0 0 58.2 85.8" style="enable-background:new 0 0 58.2 85.8;" xml:space="preserve">
<style type="text/css">
	.st0{fill:#FFFFFF;stroke:#FFFFFF;stroke-miterlimit:10;}
</style>
<path class="st0" d="M53,35.5c0,1.3-1.1,2.4-2.4,2.4H7.6c-1.3,0-2.4-1.1-2.4-2.4V22.7c0-1.3,1.1-2.4,2.4-2.4h43.1
	c1.3,0,2.4,1.1,2.4,2.4V35.5L53,35.5L53,35.5z M38.9,60.4H19.4l-6.3-17.9h32.1L38.9,60.4L38.9,60.4z M33.6,71.2h-9.1v-6h9.1V71.2
	L33.6,71.2z M50.7,15.6H7.6c-3.9,0-7.1,3.2-7.1,7.1v12.8c0,7.5,7.6,7.1,7.6,7.1l7.4,21c0.3,1,1.2,1.6,2.2,1.6h2.2v8.4
	c0,1.3,1.1,2.4,2.4,2.4H36c1.3,0,2.4-1.1,2.4-2.4v-8.4h2.2c1,0,1.9-0.6,2.2-1.6l7.4-21c0,0,7.6,0.6,7.6-7.1V22.7
	C57.7,18.8,54.6,15.6,50.7,15.6L50.7,15.6z"/>
<path class="st0" d="M36,80.5H22.2c-1.3,0-2.4,1.1-2.4,2.4c0,1.3,1.1,2.4,2.4,2.4H36c1.3,0,2.4-1.1,2.4-2.4
	C38.4,81.6,37.3,80.5,36,80.5L36,80.5z"/>
<path class="st0" d="M45.9,26.7H12.3c-1.3,0-2.4,1.1-2.4,2.4c0,1.3,1.1,2.4,2.4,2.4h33.6c1.3,0,2.4-1.1,2.4-2.4
	C48.3,27.8,47.2,26.7,45.9,26.7L45.9,26.7z"/>
<path class="st0" d="M29.1,7.9c1.3,0,2.4-1.1,2.4-2.4V2.9c0-1.3-1.1-2.4-2.4-2.4c-1.3,0-2.4,1.1-2.4,2.4v2.7
	C26.8,6.8,27.8,7.9,29.1,7.9L29.1,7.9z"/>
<path class="st0" d="M40.7,9c1.5,0.4,2.6-0.6,2.9-1.6l0.7-2.6c0.4-1.3-0.4-2.6-1.6-2.9c-1.3-0.4-2.6,0.4-2.9,1.6l-0.7,2.6
	C38.8,7.3,39.5,8.6,40.7,9L40.7,9z"/>
<path class="st0" d="M52.9,12.2c1.7,0.7,2.7-0.3,3.1-1.2L57,8.6c0.5-1.2,0-2.6-1.2-3.1c-1.2-0.5-2.6,0-3.1,1.2l-1.1,2.4
	C51.1,10.3,51.7,11.7,52.9,12.2L52.9,12.2z"/>
<path class="st0" d="M14.6,7.3c0.3,1,1.4,2.1,2.9,1.6c1.3-0.3,2-1.7,1.6-2.9l-0.7-2.6c-0.4-1.3-1.7-2-2.9-1.6
	c-1.3,0.4-2,1.7-1.6,2.9L14.6,7.3L14.6,7.3z"/>
<path class="st0" d="M2.3,11c0.4,0.9,1.5,1.9,3.1,1.2c1.2-0.5,1.7-1.9,1.2-3.1L5.5,6.7C5,5.5,3.6,4.9,2.4,5.5C1.2,6,0.7,7.4,1.2,8.6
	L2.3,11L2.3,11z"/>
</svg>
