<?xml version="1.0" encoding="utf-8"?>
<!-- Generator: Adobe Illustrator 21.0.0, SVG Export Plug-In . SVG Version: 6.00 Build 0)  -->
<svg version="1.1" id="Laag_1" xmlns="http://www.w3.org/2000/svg" xmlns:xlink="http://www.w3.org/1999/xlink" x="0px" y="0px"
	 viewBox="0 0 94.7 85.8" style="enable-background:new 0 0 94.7 85.8;" xml:space="preserve">
<style type="text/css">
	.st0{fill:#FFFFFF;stroke:#FFFFFF;stroke-miterlimit:10;}
</style>
<g>
	<path class="st0" d="M92.7,0.5H2C1.2,0.5,0.5,1.2,0.5,2v81.8c0,0.8,0.7,1.5,1.5,1.5h90.7c0.8,0,1.5-0.7,1.5-1.5v-16
		c0-0.8-0.7-1.5-1.5-1.5s-1.5,0.7-1.5,1.5v14.5H3.5V15.5h87.7v46.4c0,0.8,0.7,1.5,1.5,1.5s1.5-0.7,1.5-1.5V2
		C94.2,1.2,93.6,0.5,92.7,0.5L92.7,0.5z M3.5,3.5h55.3v9H3.5V3.5z M61.8,12.5v-9h29.4v9H61.8z M61.8,12.5"/>
	<path class="st0" d="M76.6,6.4C75.7,6.4,75,7.1,75,8c0,0.9,0.7,1.6,1.6,1.6c0.9,0,1.6-0.7,1.6-1.6C78.2,7.1,77.5,6.4,76.6,6.4
		L76.6,6.4z M76.6,6.4"/>
	<path class="st0" d="M68.4,6.4c-0.9,0-1.6,0.7-1.6,1.6c0,0.9,0.7,1.6,1.6,1.6C69.3,9.6,70,8.9,70,8C70,7.1,69.3,6.4,68.4,6.4
		L68.4,6.4z M68.4,6.4"/>
	<path class="st0" d="M84.8,6.4c-0.9,0-1.6,0.7-1.6,1.6c0,0.9,0.7,1.6,1.6,1.6c0.9,0,1.6-0.7,1.6-1.6C86.3,7.1,85.6,6.4,84.8,6.4
		L84.8,6.4z M84.8,6.4"/>
	<path class="st0" d="M30.2,41.1c0.6-0.1,1.1-0.5,1.2-1.1l3.4-11.5c0.2-0.8-0.2-1.6-1-1.9c-0.8-0.2-1.6,0.2-1.9,1l-2.5,8.2l-2.4-4
		c-0.3-0.5-0.8-0.7-1.3-0.7c-0.5,0-1,0.3-1.3,0.7l-2.4,4l-2.5-8.2c-0.2-0.8-1.1-1.2-1.9-1c-0.8,0.2-1.2,1.1-1,1.9L20.3,40
		c0.2,0.6,0.7,1,1.2,1.1c0.1,0,0.1,0,0.2,0c0.5,0,1-0.3,1.3-0.7l2.8-4.7l2.8,4.7C29,40.9,29.6,41.2,30.2,41.1L30.2,41.1z M30.2,41.1
		"/>
	<path class="st0" d="M41.7,41.1c0.1,0,0.1,0,0.2,0c0.5,0,1-0.3,1.3-0.7l2.8-4.7l2.8,4.7c0.3,0.5,0.9,0.8,1.5,0.7
		c0.6-0.1,1.1-0.5,1.2-1.1L55,28.5c0.2-0.8-0.2-1.6-1-1.9c-0.8-0.2-1.6,0.2-1.9,1l-2.5,8.2l-2.4-4c-0.3-0.5-0.8-0.7-1.3-0.7
		c-0.5,0-1,0.3-1.3,0.7l-2.4,4l-2.5-8.2c-0.2-0.8-1.1-1.2-1.9-1c-0.8,0.2-1.2,1.1-1,1.9L40.4,40C40.6,40.6,41.1,41,41.7,41.1
		L41.7,41.1z M41.7,41.1"/>
	<path class="st0" d="M74.1,26.7c-0.8-0.2-1.6,0.2-1.9,1l-2.5,8.2l-2.4-4c-0.3-0.5-0.8-0.7-1.3-0.7c-0.5,0-1,0.3-1.3,0.7l-2.4,4
		l-2.5-8.2c-0.2-0.8-1.1-1.2-1.9-1c-0.8,0.2-1.2,1.1-1,1.9L60.5,40c0.2,0.6,0.7,1,1.2,1.1c0.6,0.1,1.2-0.2,1.5-0.7l2.8-4.7l2.8,4.7
		c0.3,0.5,0.8,0.7,1.3,0.7c0.1,0,0.1,0,0.2,0c0.6-0.1,1.1-0.5,1.2-1.1l3.4-11.5C75.3,27.7,74.8,26.9,74.1,26.7L74.1,26.7z
		 M74.1,26.7"/>
	<path class="st0" d="M27.8,49.6c0-0.8-0.7-1.5-1.5-1.5h-8c-0.8,0-1.5,0.7-1.5,1.5v8c0,0.8,0.7,1.5,1.5,1.5h8c0.8,0,1.5-0.7,1.5-1.5
		V49.6z M24.8,56h-5v-5h5V56z M24.8,56"/>
	<path class="st0" d="M26.3,62h-8c-0.8,0-1.5,0.7-1.5,1.5v8c0,0.8,0.7,1.5,1.5,1.5h8c0.8,0,1.5-0.7,1.5-1.5v-8
		C27.8,62.7,27.1,62,26.3,62L26.3,62z M24.8,70h-5v-5h5V70z M24.8,70"/>
	<path class="st0" d="M73.6,52.1h-6c-0.8,0-1.5,0.7-1.5,1.5c0,0.8,0.7,1.5,1.5,1.5h6c0.8,0,1.5-0.7,1.5-1.5
		C75.1,52.7,74.5,52.1,73.6,52.1L73.6,52.1z M73.6,52.1"/>
	<path class="st0" d="M61.7,52.1H32.2c-0.8,0-1.5,0.7-1.5,1.5c0,0.8,0.7,1.5,1.5,1.5h29.4c0.8,0,1.5-0.7,1.5-1.5
		C63.2,52.7,62.5,52.1,61.7,52.1L61.7,52.1z M61.7,52.1"/>
	<path class="st0" d="M73.6,66h-6c-0.8,0-1.5,0.7-1.5,1.5c0,0.8,0.7,1.5,1.5,1.5h6c0.8,0,1.5-0.7,1.5-1.5C75.1,66.7,74.5,66,73.6,66
		L73.6,66z M73.6,66"/>
	<path class="st0" d="M61.7,66H32.2c-0.8,0-1.5,0.7-1.5,1.5c0,0.8,0.7,1.5,1.5,1.5h29.4c0.8,0,1.5-0.7,1.5-1.5
		C63.2,66.7,62.5,66,61.7,66L61.7,66z M61.7,66"/>
</g>
</svg>
